<?xml version="1.0" encoding="UTF-8"?>
<svg id="Layer" xmlns="http://www.w3.org/2000/svg" viewBox="0 0 420 593.5">
  <defs>
    <style>
      .cls-1 {
        fill: #013369;
      }

      .cls-1, .cls-2, .cls-3 {
        stroke-width: 0px;
      }

      .cls-2 {
        fill: #fff;
      }

      .cls-3 {
        fill: #d50a0a;
      }
    </style>
  </defs>
  <path class="cls-2" d="m406.18,65.59c-18.13,12.94-52.59,30.73-97.1,19.77C232.08,66.31,210,0,210,0c0,0-22.08,66.49-99.08,85.36-44.51,10.96-78.97-6.65-97.1-19.77H0v358.17c0,8.99,2.15,26.96,16.87,44.75,18.13,22.1,48.82,36.3,91.36,42.41,33.92,4.85,58.87,15.64,76.46,32.53,12.92,12.58,25.31,34.15,25.31,34.15,0,0,12.74-22.1,25.31-34.15,17.59-17.07,42.72-27.68,76.46-32.53,42.54-6.11,73.23-20.49,91.36-42.41,14.72-17.79,16.87-35.76,16.87-44.75V65.59s-13.82,0-13.82,0Z"/>
  <path class="cls-1" d="m407.44,79.61s-42.18,32.89-101.41,17.97c-69.1-17.25-96.03-69.19-96.03-69.19,0,0-26.92,51.94-96.03,69.19-59.23,14.92-101.41-17.97-101.41-17.97v344.15c0,11.68,4.85,61.28,97.46,74.76,36.62,5.21,63.9,17.07,83.46,35.94,7,6.83,12.38,13.66,16.51,19.95,4.13-6.29,9.51-13.3,16.51-19.95,19.56-18.87,46.85-30.73,83.46-35.94,92.62-13.48,97.46-63.08,97.46-74.76V79.61h0Z"/>
  <path class="cls-2" d="m210,519.55s26.92-33.07,96.56-43.85c79.87-12.4,77.54-49.96,77.54-51.76v-180.43H35.72v180.25c0,1.98-2.33,39.54,77.54,51.76,69.82,10.78,96.74,44.03,96.74,44.03h0Z"/>
  <path class="cls-3" d="m128.87,375.24v-85.72l-10.77-6.11v-22.28h48.82v22.28l-10.23,6.11v174.86l-26.21-7.91-37.87-111.78v73.68l12.03,9.16v22.64l-52.41-13.3v-19.41l12.03-4.67v-123.46l-12.21-5.93v-22.28h39.67l37.15,114.12h0Zm89.92,78.36l10.41,12.58v22.28l-52.05-19.41v-18.87l11.49-4.67v-155.81l-11.49-5.75v-22.46h90.28v45.29h-19.92l-6.1-18.51h-22.97v52.3h17.23l6.82-9.88h13.82v46.19h-13.82l-6.46-9.35h-17.59v86.08h.36,0Zm57.44,7.91v-22.28l12.92-10.6v-139.1l-10.95-5.75v-22.46h52.05v22.46l-10.23,5.75v130.47l22.44-6.11,4.31-34.15h21.18v57.15l-91.72,24.62h0Z"/>
  <path class="cls-2" d="m44.87,206.49l-15.79-11.86h19.2l6.28-18.33,6.28,18.33h19.2l-15.79,11.86,5.74,18.51-15.62-10.96-15.62,10.96,6.1-18.51h0Zm68.39,0l-15.79-11.86h19.2l6.28-18.33,6.28,18.33h19.2l-15.79,11.86,5.74,18.51-15.62-10.96-15.62,10.96,6.1-18.51h0Zm-68.39-61.64l-15.79-11.86h19.2l6.28-18.33,6.28,18.33h19.2l-15.79,11.86,5.74,18.51-15.62-10.96-15.62,10.96,6.1-18.51h0Zm68.39,0l-15.79-11.86h19.2l6.28-18.33,6.28,18.33h19.2l-15.79,11.86,5.74,18.51-15.62-10.96-15.62,10.96,6.1-18.51h0Zm267.62,80.33l-15.62-10.96-15.62,10.96,5.74-18.51-15.79-11.86h19.38l6.28-18.33,6.28,18.33h19.2l-15.79,11.86,5.92,18.51h0Zm-68.21,0l-15.62-10.96-15.62,10.96,5.74-18.51-15.79-11.86h19.2l6.28-18.33,6.28,18.33h19.2l-15.79,11.86,6.1,18.51h0Zm68.21-61.82l-15.62-10.96-15.62,10.96,5.74-18.51-15.79-11.86h19.38l6.28-18.33,6.28,18.33h19.2l-15.79,11.86,5.92,18.51h0Zm-68.21,0l-15.62-10.96-15.62,10.96,5.74-18.51-15.79-11.86h19.2l6.28-18.33,6.28,18.33h19.2l-15.79,11.86,6.1,18.51h0Zm-59.23-68.11c1.62-.18,2.51,1.8,3.41,3.05,6.82,17.25,8.62,38.28,3.41,58.41-7.9,30.73-33.74,58.95-89.21,66.13-1.26.18-2.69-.18-2.87-.9,2.51-11.68,8.79-33.97,22.26-57.51,2.51,1.62,5.03,3.23,7.36,5.03.9-1.44,1.97-3.05,3.59-5.75-6.82-5.39-14.72-9.16-23.51-10.78,0,0-1.62,3.41-2.87,5.93,0,0,3.41.72,7.54,2.16-12.03,25.52-16.15,49.24-17.23,60.02-3.41-5.39-6.1-17.97-7-24.8-8.79-64.7,37.69-102.44,88.31-103.16,3.41-.18,4.67.54,4.67.54,0,0-11.13,4.13-24.05,14.02,0,0-3.05-1.26-6.28-2.16-1.97,1.26-4.13,2.7-6.1,4.13,6.1,1.44,13.82,4.49,21.18,10.6,1.62-1.44,3.23-3.05,5.03-4.67-1.8-1.44-4.67-3.41-7.18-4.85,11.49-11.14,19.56-15.46,19.56-15.46h0Zm-47.74,61.1c1.26-1.8,2.69-3.95,4.13-6.11-5.74-4.85-14-9.53-24.05-11.5-1.44,2.16-3.95,6.29-3.95,6.29,8.26,1.62,16.69,5.39,23.87,11.32h0Zm9.15-12.76c1.44-1.98,2.87-3.77,4.49-5.75-7.9-6.47-16.87-10.24-23.87-11.5-1.62,1.8-3.23,3.77-4.67,5.57,9.15,1.8,17.41,6.11,24.05,11.68h0Zm10.23-12.22c1.44-1.8,3.05-3.41,5.03-5.21-4.85-3.95-11.85-8.63-22.26-11.14-1.8,1.44-3.95,3.05-5.92,5.03,8.26,1.8,16.15,5.57,23.15,11.32h0Z"/>
</svg>